<svg xmlns="http://www.w3.org/2000/svg" viewBox="0 0 769 855" role="img" aria-label="AndreasOne symbol favicon">
  <path fill="#f6c45a" fill-rule="evenodd" d="M 261 122.25 L 259.75 123.75 L 252 128.25 L 249.75 130.75 L 245 133.25 L 237.75 139.75 L 232 143.25 L 227.75 147.75 L 226 148.25 L 220.75 153.75 L 219.50 154 L 218.25 156 L 217 156.25 L 215.25 159 L 214 159.25 L 211.25 162 L 210.75 163.75 L 196.25 178 L 195.75 179.75 L 192.25 183 L 189.75 187.75 L 185.25 192 L 184.75 193.75 L 179.25 201 L 177.75 204.75 L 175.25 207 L 174.75 208.75 L 169.25 216 L 169 219.25 L 166.25 223 L 165.75 225.75 L 164.25 227 L 162.75 230.75 L 160 234.50 L 160 237.25 L 158 239.50 L 157 246.25 L 155 249.50 L 154 255.25 L 152.25 257 L 150 261.50 L 150 264.25 L 149 265.50 L 148 274.25 L 146 279.50 L 146 284.25 L 144 289.50 L 144 295.25 L 143 296.50 L 143 306.25 L 141 311.50 L 141 357.25 L 143 362.50 L 143 373.25 L 144 374.50 L 144 379.25 L 146 384.50 L 146 389.25 L 147 390.50 L 147 393.25 L 149 398.50 L 149 402.25 L 150 403.50 L 151 408.25 L 153 410.50 L 154 416.25 L 157 422.50 L 158 429.25 L 160 431.50 L 160 434.25 L 162.25 438.75 L 165.75 443 L 166 445.25 L 167.75 447 L 169.25 451.75 L 170.75 453 L 172.25 456.75 L 176.75 462 L 179.25 467.75 L 180.75 469 L 185.25 476.75 L 190.75 482 L 191.25 483.75 L 195.75 489 L 196.25 490.75 L 210.75 505 L 211 506.25 L 212.25 506.75 L 213.50 508.75 L 215.75 510 L 217 512.50 L 218.75 513 L 222.75 517 L 223 518.25 L 218.75 526.75 L 215.25 531 L 215 533.25 L 212 537.50 L 212 540.25 L 207.75 548.75 L 206.25 550 L 204.75 553.75 L 200.25 560 L 199.75 563.75 L 195.25 569 L 194 573.25 L 191 578.50 L 191 580.25 L 189 582.50 L 188.75 585.75 L 187.25 587 L 186.75 588.75 L 183.25 593 L 181.75 596.75 L 180.25 598 L 180 601.25 L 173.75 613.75 L 169.25 620 L 169 623.25 L 167.75 625.75 L 166.25 627 L 164.75 630.75 L 160.25 637 L 157 643.50 L 157 646.25 L 155.25 648 L 154.75 650.75 L 151.25 655 L 146.75 665.75 L 144.25 668 L 143.75 669.75 L 140.25 674 L 140 677.25 L 138.25 679 L 138 681.25 L 135 685.50 L 135 688.25 L 129.25 696 L 129 699.25 L 127.25 701 L 126 705.25 L 123 709.50 L 122.75 711.75 L 121.25 713 L 118.75 718.75 L 117.25 720 L 113.75 728.75 L 109 734.50 L 109 737.25 L 108 738.50 L 108 741.25 L 106 746.50 L 106 751.25 L 104 755.50 L 106 760.50 L 106 764.25 L 107 765.50 L 107 768.25 L 108 769.50 L 108.25 771.75 L 109.75 773 L 112.25 777.75 L 117 782.50 L 118.75 783 L 123.50 786.75 L 130.25 787.75 L 134.50 789.75 L 632.25 789.75 L 636.50 787.75 L 640.25 787.75 L 645.75 785.50 L 647 784 L 648.75 783.50 L 655.50 776.75 L 656 775 L 659.75 770.25 L 659.75 766.50 L 660.75 765.25 L 660.75 762.50 L 661.75 761.25 L 662.75 754.50 L 661.75 753.25 L 660.75 745.50 L 659.75 744.25 L 659.75 740.50 L 658.75 739.25 L 657.75 734.50 L 652 726.75 L 651.75 723.50 L 648.50 718 L 647 716.75 L 637.75 698.25 L 637.50 695 L 635 692.75 L 631.75 687.25 L 631.75 685.50 L 627.75 678.25 L 627.50 675 L 626 673.75 L 623.50 669 L 620 665.75 L 619.75 662.50 L 618 660.75 L 616.50 656 L 613 651.75 L 610.75 647.25 L 610.75 644.50 L 608.75 642.25 L 608.50 640 L 607 638.75 L 601.50 628 L 600 626.75 L 595.50 616 L 592 611.75 L 591.75 609.50 L 588.75 605.25 L 588.75 603.50 L 584.50 594 L 583 592.75 L 577.75 584.25 L 577.75 581.50 L 574.75 577.25 L 574.75 575.50 L 572.50 570 L 567 562.75 L 565.50 558 L 564 556.75 L 561.50 551 L 558 546.75 L 557.75 544.50 L 554.75 540.25 L 554.75 537.50 L 548.50 526 L 547 524.75 L 545.50 520 L 543.75 518.25 L 544 517 L 545.75 516.50 L 564.50 497.75 L 566 495 L 567.75 494.50 L 569.50 492.75 L 570 491 L 574.50 485.75 L 575 484 L 582.50 475.75 L 583 474 L 588.50 466.75 L 591 461 L 595.50 455.75 L 603 440 L 605.75 437.25 L 605.75 435.50 L 608.75 429.25 L 608.75 426.50 L 610.75 424.25 L 610.75 421.50 L 611.75 420.25 L 611.75 417.50 L 613.75 414.25 L 613.75 411.50 L 616.75 407.25 L 616.75 403.50 L 617.75 402.25 L 617.75 399.50 L 619.75 395.25 L 619.75 391.50 L 620.75 390.25 L 620.75 385.50 L 622.75 381.25 L 622.75 374.50 L 623.75 373.25 L 623.75 368.50 L 624.75 367.25 L 624.75 359.50 L 625.75 358.25 L 625.75 336.50 L 626.75 335.25 L 626.75 333.50 L 625.75 332.25 L 625.75 310.50 L 624.75 309.25 L 624.75 301.50 L 623.75 300.25 L 623.75 295.50 L 622.75 294.25 L 622.75 287.50 L 620.75 283.25 L 619.75 272.50 L 617.75 268.25 L 616.75 260.50 L 612.75 254.25 L 611.75 248.50 L 608.75 242.25 L 608.75 239.50 L 605.75 233.25 L 605.75 231.50 L 603 228.75 L 597.75 218.25 L 596.50 214 L 595 212.75 L 592.50 208 L 590 205.75 L 588.50 202 L 587 200.75 L 582.50 193 L 578 188.75 L 577.50 187 L 572 180.75 L 569.50 176 L 567.75 174.25 L 566 173.75 L 564.50 171 L 544.75 151.25 L 543 150.75 L 538.75 146.25 L 537 145.75 L 533.75 142.25 L 532 141.75 L 527.75 137.25 L 523 134.75 L 520.75 132.25 L 519 131.75 L 516.75 129.25 L 513 127.75 L 507.75 123.25 L 501.25 120 L 499.50 120 L 497.75 118.25 L 476.25 108 L 474.50 108 L 471.25 106 L 469.50 106 L 463.25 103 L 460.50 103 L 456.25 101 L 449.50 100 L 448.25 99 L 442.50 98 L 441.25 97 L 437.50 97 L 433.25 95 L 429.50 95 L 428.25 94 L 422.50 94 L 417.25 92 L 401.50 92 L 400.25 91 L 366.50 91 L 365.25 92 L 349.50 92 L 345.25 94 L 338.50 94 L 337.25 95 L 334.50 95 L 333.25 96 L 330.50 96 L 329.25 97 L 321.50 98 L 317.25 100 L 310.50 101 L 306.25 103 L 303.50 103 L 300.25 105 L 298.50 105 L 295.25 107 L 288.50 109 L 279.25 114 L 277 114.25 L 273.25 117 L 271 117.25 L 267.25 120 L 265.50 120 Z"/>
</svg>
