<svg xmlns="http://www.w3.org/2000/svg" viewBox="0 0 769 855" role="img" aria-label="AndreasOne symbol logo">
  <path fill="currentColor" fill-rule="evenodd" d="M 261 122.25 L 259.75 123.75 L 252 128.25 L 249.75 130.75 L 245 133.25 L 237.75 139.75 L 232 143.25 L 227.75 147.75 L 226 148.25 L 220.75 153.75 L 219.50 154 L 218.25 156 L 217 156.25 L 215.25 159 L 214 159.25 L 211.25 162 L 210.75 163.75 L 196.25 178 L 195.75 179.75 L 192.25 183 L 189.75 187.75 L 185.25 192 L 184.75 193.75 L 179.25 201 L 177.75 204.75 L 175.25 207 L 174.75 208.75 L 169.25 216 L 169 219.25 L 166.25 223 L 165.75 225.75 L 164.25 227 L 162.75 230.75 L 160 234.50 L 160 237.25 L 158 239.50 L 157 246.25 L 155 249.50 L 154 255.25 L 152.25 257 L 150 261.50 L 150 264.25 L 149 265.50 L 148 274.25 L 146 279.50 L 146 284.25 L 144 289.50 L 144 295.25 L 143 296.50 L 143 306.25 L 141 311.50 L 141 357.25 L 143 362.50 L 143 373.25 L 144 374.50 L 144 379.25 L 146 384.50 L 146 389.25 L 147 390.50 L 147 393.25 L 149 398.50 L 149 402.25 L 150 403.50 L 151 408.25 L 153 410.50 L 154 416.25 L 157 422.50 L 158 429.25 L 160 431.50 L 160 434.25 L 162.25 438.75 L 165.75 443 L 166 445.25 L 167.75 447 L 169.25 451.75 L 170.75 453 L 172.25 456.75 L 176.75 462 L 179.25 467.75 L 180.75 469 L 185.25 476.75 L 190.75 482 L 191.25 483.75 L 195.75 489 L 196.25 490.75 L 210.75 505 L 211 506.25 L 212.25 506.75 L 213.50 508.75 L 215.75 510 L 217 512.50 L 218.75 513 L 222.75 517 L 223 518.25 L 218.75 526.75 L 215.25 531 L 215 533.25 L 212 537.50 L 212 540.25 L 207.75 548.75 L 206.25 550 L 204.75 553.75 L 200.25 560 L 199.75 563.75 L 195.25 569 L 194 573.25 L 191 578.50 L 191 580.25 L 189 582.50 L 188.75 585.75 L 187.25 587 L 186.75 588.75 L 183.25 593 L 181.75 596.75 L 180.25 598 L 180 601.25 L 173.75 613.75 L 169.25 620 L 169 623.25 L 167.75 625.75 L 166.25 627 L 164.75 630.75 L 160.25 637 L 157 643.50 L 157 646.25 L 155.25 648 L 154.75 650.75 L 151.25 655 L 146.75 665.75 L 144.25 668 L 143.75 669.75 L 140.25 674 L 140 677.25 L 138.25 679 L 138 681.25 L 135 685.50 L 135 688.25 L 129.25 696 L 129 699.25 L 127.25 701 L 126 705.25 L 123 709.50 L 122.75 711.75 L 121.25 713 L 118.75 718.75 L 117.25 720 L 113.75 728.75 L 109 734.50 L 109 737.25 L 108 738.50 L 108 741.25 L 106 746.50 L 106 751.25 L 104 755.50 L 106 760.50 L 106 764.25 L 107 765.50 L 107 768.25 L 108 769.50 L 108.25 771.75 L 109.75 773 L 112.25 777.75 L 117 782.50 L 118.75 783 L 123.50 786.75 L 130.25 787.75 L 134.50 789.75 L 632.25 789.75 L 636.50 787.75 L 640.25 787.75 L 645.75 785.50 L 647 784 L 648.75 783.50 L 655.50 776.75 L 656 775 L 659.75 770.25 L 659.75 766.50 L 660.75 765.25 L 660.75 762.50 L 661.75 761.25 L 662.75 754.50 L 661.75 753.25 L 660.75 745.50 L 659.75 744.25 L 659.75 740.50 L 658.75 739.25 L 657.75 734.50 L 652 726.75 L 651.75 723.50 L 648.50 718 L 647 716.75 L 637.75 698.25 L 637.50 695 L 635 692.75 L 631.75 687.25 L 631.75 685.50 L 627.75 678.25 L 627.50 675 L 626 673.75 L 623.50 669 L 620 665.75 L 619.75 662.50 L 618 660.75 L 616.50 656 L 613 651.75 L 610.75 647.25 L 610.75 644.50 L 608.75 642.25 L 608.50 640 L 607 638.75 L 601.50 628 L 600 626.75 L 595.50 616 L 592 611.75 L 591.75 609.50 L 588.75 605.25 L 588.75 603.50 L 584.50 594 L 583 592.75 L 577.75 584.25 L 577.75 581.50 L 574.75 577.25 L 574.75 575.50 L 572.50 570 L 567 562.75 L 565.50 558 L 564 556.75 L 561.50 551 L 558 546.75 L 557.75 544.50 L 554.75 540.25 L 554.75 537.50 L 548.50 526 L 547 524.75 L 545.50 520 L 543.75 518.25 L 544 517 L 545.75 516.50 L 564.50 497.75 L 566 495 L 567.75 494.50 L 569.50 492.75 L 570 491 L 574.50 485.75 L 575 484 L 582.50 475.75 L 583 474 L 588.50 466.75 L 591 461 L 595.50 455.75 L 603 440 L 605.75 437.25 L 605.75 435.50 L 608.75 429.25 L 608.75 426.50 L 610.75 424.25 L 610.75 421.50 L 611.75 420.25 L 611.75 417.50 L 613.75 414.25 L 613.75 411.50 L 616.75 407.25 L 616.75 403.50 L 617.75 402.25 L 617.75 399.50 L 619.75 395.25 L 619.75 391.50 L 620.75 390.25 L 620.75 385.50 L 622.75 381.25 L 622.75 374.50 L 623.75 373.25 L 623.75 368.50 L 624.75 367.25 L 624.75 359.50 L 625.75 358.25 L 625.75 336.50 L 626.75 335.25 L 626.75 333.50 L 625.75 332.25 L 625.75 310.50 L 624.75 309.25 L 624.75 301.50 L 623.75 300.25 L 623.75 295.50 L 622.75 294.25 L 622.75 287.50 L 620.75 283.25 L 619.75 272.50 L 617.75 268.25 L 616.75 260.50 L 612.75 254.25 L 611.75 248.50 L 608.75 242.25 L 608.75 239.50 L 605.75 233.25 L 605.75 231.50 L 603 228.75 L 597.75 218.25 L 596.50 214 L 595 212.75 L 592.50 208 L 590 205.75 L 588.50 202 L 587 200.75 L 582.50 193 L 578 188.75 L 577.50 187 L 572 180.75 L 569.50 176 L 567.75 174.25 L 566 173.75 L 564.50 171 L 544.75 151.25 L 543 150.75 L 538.75 146.25 L 537 145.75 L 533.75 142.25 L 532 141.75 L 527.75 137.25 L 523 134.75 L 520.75 132.25 L 519 131.75 L 516.75 129.25 L 513 127.75 L 507.75 123.25 L 501.25 120 L 499.50 120 L 497.75 118.25 L 476.25 108 L 474.50 108 L 471.25 106 L 469.50 106 L 463.25 103 L 460.50 103 L 456.25 101 L 449.50 100 L 448.25 99 L 442.50 98 L 441.25 97 L 437.50 97 L 433.25 95 L 429.50 95 L 428.25 94 L 422.50 94 L 417.25 92 L 401.50 92 L 400.25 91 L 366.50 91 L 365.25 92 L 349.50 92 L 345.25 94 L 338.50 94 L 337.25 95 L 334.50 95 L 333.25 96 L 330.50 96 L 329.25 97 L 321.50 98 L 317.25 100 L 310.50 101 L 306.25 103 L 303.50 103 L 300.25 105 L 298.50 105 L 295.25 107 L 288.50 109 L 279.25 114 L 277 114.25 L 273.25 117 L 271 117.25 L 267.25 120 L 265.50 120 Z
  M 280 149 L 300.50 138.75 L 302.25 138.75 L 305.50 136.75 L 307.25 136.75 L 310.50 134.75 L 312.25 134.75 L 319.50 131.75 L 322.25 131.75 L 323.50 130.75 L 326.25 130.75 L 330.50 128.75 L 334.25 128.75 L 339.50 126.75 L 343.25 126.75 L 344.50 125.75 L 350.25 125.75 L 351.50 124.75 L 358.25 124.75 L 359.50 123.75 L 370.25 123.75 L 371.50 122.75 L 396.25 122.75 L 397.50 123.75 L 407.25 123.75 L 408.50 124.75 L 416.25 124.75 L 417.50 125.75 L 422.25 125.75 L 423.50 126.75 L 427.25 126.75 L 432.50 128.75 L 440.25 129.75 L 444.50 131.75 L 447.25 131.75 L 448.50 132.75 L 459.25 135.75 L 481.75 146 L 483 147.50 L 493.75 153 L 495 154.50 L 502.75 159 L 505 161.50 L 506.75 162 L 509 164.50 L 510.75 165 L 513 167.50 L 514.75 168 L 520 173.50 L 521.75 174 L 541.75 194 L 542.25 195.75 L 547.75 201 L 548.25 202.75 L 550.75 205 L 551.25 206.75 L 554.75 210 L 557.25 214.75 L 559.75 217 L 561.25 220.75 L 562.75 222 L 566.25 228.75 L 567.75 230 L 577 248.50 L 577 250.25 L 582 260.50 L 582 263.25 L 584 266.50 L 584 269.25 L 586 272.50 L 586 275.25 L 587 276.50 L 587 279.25 L 589 284.50 L 589 288.25 L 591 293.50 L 591 300.25 L 592 301.50 L 592 306.25 L 593 307.50 L 593 318.25 L 594 319.50 L 594 349.25 L 593 350.50 L 593 361.25 L 592 362.50 L 592 367.25 L 591 368.50 L 591 375.25 L 589 380.50 L 589 384.25 L 587 388.50 L 586 396.25 L 584 399.50 L 584 402.25 L 582 405.50 L 582 408.25 L 577 418.50 L 577 420.25 L 568.75 436.75 L 567.25 438 L 562.75 446.75 L 561.25 448 L 554.75 458.75 L 551.25 462 L 547.75 467.75 L 541.25 474 L 540.75 475.75 L 521.75 494.75 L 520 495.25 L 515.75 499.75 L 514 500.25 L 510.75 503.75 L 505 507.25 L 503 510.25 L 515.25 534.75 L 516.75 536 L 517.25 538.75 L 518.75 540 L 526.25 555.75 L 527.75 557 L 528 559.25 L 529.75 561 L 540.25 582.75 L 541.75 584 L 553.25 607.75 L 554.75 609 L 555.25 611.75 L 556.75 613 L 564.25 628.75 L 565.75 630 L 567.25 634.75 L 568.75 636 L 589.25 676.75 L 590.75 678 L 591.25 680.75 L 592.75 682 L 601.25 699.75 L 602.75 701 L 603.25 703.75 L 604.75 705 L 613.25 722.75 L 614.75 724 L 615 726.25 L 616.75 728 L 617.25 730.75 L 618.75 732 L 625.25 745.75 L 626.75 747 L 627 749.25 L 628.75 751 L 631 755.50 L 631 757.25 L 629.75 758.75 L 136.75 758.50 L 136.75 754.50 L 142 744 L 143.50 742.75 L 144 740 L 145.50 738.75 L 155 719 L 156.50 717.75 L 167 696 L 168.50 694.75 L 178 675 L 179.50 673.75 L 179.75 671.50 L 181.50 669.75 L 182 667 L 183.50 665.75 L 190 652 L 191.50 650.75 L 191.75 648.50 L 193.50 646.75 L 194 644 L 195.50 642.75 L 204 625 L 205.50 623.75 L 216 602 L 217.75 600.25 L 218 598 L 219.50 596.75 L 230 575 L 231.75 573.25 L 232 571 L 233.50 569.75 L 243 550 L 244.50 548.75 L 250 537 L 251.50 535.75 L 251.75 533.50 L 253.50 531.75 L 253.75 529.50 L 255.50 527.75 L 263.75 511.25 L 263.50 509 L 260.75 506.25 L 255 502.75 L 251.75 499.25 L 250 498.75 L 242.75 491.25 L 241 490.75 L 229 478.75 L 228.50 477 L 217 464.75 L 216.50 463 L 211 456.75 L 210.50 455 L 203 444.75 L 197.50 434 L 196 432.75 L 195.75 430.50 L 194 428.75 L 193.75 426.50 L 191.75 424.25 L 191.75 422.50 L 188.75 417.25 L 188.75 415.50 L 184.75 407.25 L 184.75 405.50 L 181.75 398.25 L 181.75 395.50 L 179.75 391.25 L 179.75 387.50 L 177.75 383.25 L 177.75 378.50 L 176.75 377.25 L 175.75 367.50 L 174.75 366.25 L 174.75 358.50 L 173.75 357.25 L 173.75 346.50 L 172.75 345.25 L 172.75 323.50 L 173.75 322.25 L 173.75 311.50 L 174.75 310.25 L 174.75 302.50 L 175.75 301.25 L 175.75 296.50 L 176.75 295.25 L 176.75 291.50 L 177.75 290.25 L 177.75 285.50 L 179.75 281.25 L 179.75 277.50 L 181.75 273.25 L 181.75 270.50 L 182.75 269.25 L 184.75 261.50 L 186.75 258.25 L 188.75 251.50 L 191.75 246.25 L 191.75 244.50 L 194 240 L 195.50 238.75 L 195.75 236.50 L 197.50 234.75 L 200 229 L 201.50 227.75 L 203 224 L 204.50 222.75 L 211 212 L 213.50 209.75 L 217 204 L 220.50 200.75 L 221 199 L 243 176 L 244.75 175.50 L 250 170 L 251.75 169.50 L 255 166 L 256.75 165.50 L 263 160 L 264.75 159.50 L 275 152 L 278.75 150.50 Z
  M 286 194.25 L 282.75 197.75 L 281 198.25 L 277.75 201.75 L 276 202.25 L 260.25 218 L 259.75 219.75 L 251.25 229 L 250.75 230.75 L 241.25 244 L 237.75 251.75 L 236.25 253 L 232 261.50 L 232 263.25 L 228 271.50 L 228 273.25 L 223 286.50 L 222 294.25 L 220 298.50 L 220 302.25 L 219 303.50 L 219 368.25 L 220 369.50 L 220 372.25 L 222 377.50 L 222 381.25 L 223 382.50 L 224 388.25 L 225 389.50 L 228 400.25 L 230 403.50 L 230 405.25 L 240.25 425.75 L 241.75 427 L 243.25 430.75 L 247.75 436 L 252.25 443.75 L 256.75 448 L 257.25 449.75 L 261.75 454 L 262.25 455.75 L 271 464.50 L 272.75 465 L 279 471.50 L 280.75 472 L 283 474.50 L 284.50 474.75 L 297 450 L 298.50 448.75 L 300 444 L 301.50 442.75 L 317 412 L 318.50 410.75 L 320 406 L 321.50 404.75 L 329 389 L 330.50 387.75 L 330.75 385.50 L 332.50 383.75 L 342 364 L 343.50 362.75 L 351 347 L 352.50 345.75 L 354 341 L 355.50 339.75 L 363 324 L 364.50 322.75 L 365 320 L 366.50 318.75 L 380 292 L 381.75 291 L 382.25 293.75 L 384.25 293.75 L 385.25 291.75 L 387.75 293 L 394.25 306.75 L 396 308.50 L 396.25 310.75 L 397.75 312 L 416.25 348.75 L 417.75 350 L 428.25 371.75 L 429.75 373 L 436.25 386.75 L 437.75 388 L 439.25 392.75 L 440.75 394 L 448.25 409.75 L 449.75 411 L 450.25 413.75 L 451.75 415 L 459.25 430.75 L 460.75 432 L 462.25 436.75 L 463.75 438 L 470.25 451.75 L 471.75 453 L 472 455.25 L 473.75 457 L 481.25 472.75 L 483.75 474.50 L 485 473 L 486.75 472.50 L 491 468 L 492.75 467.50 L 507.50 452.75 L 508 451 L 515.50 442.75 L 520 435 L 524.50 429.75 L 538.75 401.25 L 538.75 399.50 L 542.75 389.25 L 542.75 386.50 L 544.75 382.25 L 545.75 374.50 L 547.75 370.25 L 547.75 363.50 L 548.75 362.25 L 548.75 308.50 L 547.75 307.25 L 547.75 301.50 L 545.75 296.25 L 545.75 292.50 L 544.75 291.25 L 543.75 285.50 L 540.75 278.25 L 540.75 275.50 L 538.75 272.25 L 536.75 265.50 L 527.50 247 L 526 245.75 L 524.50 242 L 523 240.75 L 516.50 230 L 510 222.75 L 509.50 221 L 500 211.75 L 499.75 210.50 L 498 209.75 L 489.75 201.25 L 488 200.75 L 483.75 196.25 L 479 193.75 L 476.75 191.25 L 475 190.75 L 470.75 187.25 L 467 185.75 L 465.75 184.25 L 460 181.75 L 456.25 179 L 454.50 179 L 447.25 175 L 445.50 175 L 437.25 171 L 435.50 171 L 431.25 169 L 428.50 169 L 427.25 168 L 424.50 168 L 423.25 167 L 420.50 167 L 419.25 166 L 416.50 166 L 415.25 165 L 410.50 165 L 409.25 164 L 406.50 164 L 405.25 163 L 400.50 163 L 399.25 162 L 367.50 162 L 366.25 163 L 362.50 163 L 361.25 164 L 357.50 164 L 356.25 165 L 351.50 165 L 350.25 166 L 347.50 166 L 346.25 167 L 339.50 168 L 338.25 169 L 324.50 173 L 321.25 175 L 319.50 175 L 301 184.25 L 299.75 185.75 Z"/>
</svg>
